<svg width="23" height="22" viewBox="0 0 23 22" fill="none" xmlns="http://www.w3.org/2000/svg">
<path fill-rule="evenodd" clip-rule="evenodd" d="M5.50391 0C2.74248 0 0.503906 2.23858 0.503906 5V17C0.503906 19.7614 2.74248 22 5.50391 22H17.5039C20.2653 22 22.5039 19.7614 22.5039 17V5C22.5039 2.23858 20.2653 0 17.5039 0H5.50391ZM5.31641 7.56855C5.41531 12.2913 7.82602 15.125 12.054 15.125H12.0602H12.3013V12.4245C13.8528 12.5759 15.0273 13.69 15.497 15.125H17.6914C17.4663 14.3096 17.0674 13.5502 16.5208 12.8968C15.9742 12.2435 15.2924 11.7111 14.5204 11.3347C15.2122 10.922 15.8096 10.374 16.2755 9.72501C16.7413 9.07597 17.0655 8.3398 17.2278 7.5625H15.2374C14.8047 9.0641 13.519 10.4264 12.3013 10.5536V7.56855H10.3047V12.7999C9.06847 12.4972 7.51077 11.0319 7.44278 7.56855H5.31641Z" fill="white"/>
</svg>
