<svg width="22" height="22" viewBox="0 0 22 22" fill="none" xmlns="http://www.w3.org/2000/svg">
<path fill-rule="evenodd" clip-rule="evenodd" d="M3.4375 0H18.5625C20.461 0 22 1.53902 22 3.4375V18.5625C22 20.461 20.461 22 18.5625 22H3.4375C1.53902 22 0 20.461 0 18.5625V3.4375C0 1.53902 1.53902 0 3.4375 0ZM11.4756 8.25507C10.4905 8.66484 8.52148 9.51297 5.56869 10.7995C5.08921 10.9901 4.83803 11.1767 4.81516 11.3591C4.77652 11.6673 5.16254 11.7887 5.68819 11.954C5.7597 11.9765 5.83378 11.9998 5.90974 12.0245C6.4269 12.1926 7.12258 12.3892 7.48423 12.397C7.81229 12.4041 8.17844 12.2689 8.58267 11.9913C11.3416 10.129 12.7657 9.18768 12.8551 9.16738C12.9182 9.15307 13.0056 9.13507 13.0648 9.18771C13.124 9.24035 13.1182 9.34004 13.112 9.36678C13.0737 9.52981 11.5585 10.9385 10.7743 11.6675C10.5298 11.8948 10.3564 12.056 10.321 12.0928C10.2416 12.1753 10.1607 12.2533 10.0829 12.3283C9.60242 12.7915 9.24213 13.1388 10.1028 13.706C10.5165 13.9786 10.8474 14.204 11.1776 14.4288C11.5382 14.6744 11.8979 14.9193 12.3633 15.2244C12.4818 15.3021 12.5951 15.3828 12.7053 15.4615C13.125 15.7606 13.502 16.0294 13.9678 15.9866C14.2385 15.9617 14.5181 15.7072 14.6601 14.9481C14.9956 13.1543 15.6552 9.26756 15.8076 7.66594C15.821 7.52562 15.8042 7.34604 15.7907 7.2672C15.7772 7.18837 15.749 7.07605 15.6465 6.9929C15.5252 6.89443 15.3378 6.87366 15.254 6.87506C14.8731 6.88185 14.2886 7.08509 11.4756 8.25507Z" fill="white"/>
</svg>
