<svg width="10px" height="10px" viewBox="0 0 22 22" fill="none" xmlns="http://www.w3.org/2000/svg">
<path fill-rule="evenodd" clip-rule="evenodd" d="M3.4375 0C1.53902 0 0 1.53902 0 3.4375V18.5625C0 20.461 1.53902 22 3.4375 22H18.5625C20.461 22 22 20.461 22 18.5625V3.4375C22 1.53902 20.461 0 18.5625 0H3.4375ZM11.0589 16.5C11.1336 14.0643 11.1964 12.9525 12.0607 12.0607C12.9525 11.1964 14.0643 11.1375 16.5 11.0589C16.5 13.255 16.4921 14.8971 15.7064 15.7064C14.8971 16.4921 13.3296 16.5 11.0589 16.5ZM6.29357 15.7064C5.50786 14.8971 5.5 13.255 5.5 11.0589C7.93571 11.1336 9.0475 11.1964 9.93929 12.0607C10.8036 12.9525 10.8625 14.0643 10.9411 16.5C8.67036 16.5 7.10286 16.4921 6.29357 15.7064ZM6.29357 6.29357C7.10286 5.50786 8.67429 5.5 10.9411 5.5C10.8664 7.93571 10.8036 9.0475 9.93929 9.93929C9.0475 10.8036 7.93571 10.8625 5.5 10.9411C5.5 8.745 5.50786 7.10286 6.29357 6.29357ZM11.0589 5.5C11.1336 7.93571 11.1964 9.0475 12.0607 9.93929C12.9525 10.8036 14.0643 10.8625 16.5 10.9411C16.5 8.745 16.4921 7.10286 15.7064 6.29357C14.8971 5.50786 13.3296 5.5 11.0589 5.5Z" fill="white"/>
</svg>
