<svg width="22" height="22" viewBox="0 0 22 22" fill="none" xmlns="http://www.w3.org/2000/svg">
<path d="M12.7875 11L9.9 9.35V12.65L12.7875 11Z" fill="white"/>
<path fill-rule="evenodd" clip-rule="evenodd" d="M0 3.4375C0 1.53902 1.53902 0 3.4375 0H18.5625C20.461 0 22 1.53902 22 3.4375V18.5625C22 20.461 20.461 22 18.5625 22H3.4375C1.53902 22 0 20.461 0 18.5625V3.4375ZM15.2625 7.35625C15.7438 7.49375 16.0875 7.8375 16.225 8.31875C16.5 9.2125 16.5 11 16.5 11C16.5 11 16.5 12.7875 16.2938 13.6813C16.1563 14.1625 15.8125 14.5063 15.3312 14.6438C14.4375 14.85 11 14.85 11 14.85C11 14.85 7.49375 14.85 6.66875 14.6438C6.1875 14.5063 5.84375 14.1625 5.70625 13.6813C5.5 12.7875 5.5 11 5.5 11C5.5 11 5.5 9.2125 5.6375 8.31875C5.775 7.8375 6.11875 7.49375 6.6 7.35625C7.49375 7.15 10.9312 7.15 10.9312 7.15C10.9312 7.15 14.4375 7.15 15.2625 7.35625Z" fill="white"/>
</svg>
