<svg width="80" height="80" viewBox="0 0 80 80" fill="none" xmlns="http://www.w3.org/2000/svg">
<g clip-path="url(#clip0)">
<path d="M74.988 20.806C76.9849 16.2665 75.9788 10.9661 72.4575 7.47404C68.9361 3.98203 63.6274 3.02029 59.1048 5.05504C49.9494 0.0853876 39.2123 -1.10277 29.1919 1.74491L29.19 1.74597C19.3562 4.52043 10.9726 10.983 5.78656 19.7868C5.69302 19.9464 5.63397 20.1239 5.61323 20.3078C4.97676 21.1539 4.44728 22.0753 4.03683 23.0512L3.9379 23.2645C1.49481 28.5433 0.228458 34.2901 0.226562 40.1068C0.22694 43.886 0.766831 47.6459 1.8299 51.2725C0.922899 54.3224 1.2677 57.6078 2.78811 60.403C4.30852 63.1981 6.87937 65.2727 9.93256 66.1684C16.0726 73.3024 24.5439 78.0275 33.8399 79.5033C43.552 81.053 53.4939 78.95 61.7466 73.6001C66.6164 75.7999 72.3542 74.5103 75.8144 70.4383C79.2746 66.3663 79.6213 60.4956 76.6644 56.0446C81.6414 44.6815 81.0212 31.6453 74.988 20.806ZM63.9999 17.3334C62.5271 17.3334 61.3332 16.1395 61.3332 14.6668C61.3332 13.194 62.5271 12.0001 63.9999 12.0001C65.4726 12.0001 66.6666 13.194 66.6666 14.6668C66.6651 16.1389 65.472 17.332 63.9999 17.3334ZM61.3066 19.244C62.9601 20.2521 65.0383 20.2521 66.6919 19.244C68.3057 19.9673 69.5712 21.2951 70.2163 22.9417C66.685 26.1307 61.3135 26.1307 57.7822 22.9417C58.4274 21.2949 59.6932 19.9672 61.3072 19.244H61.3066ZM73.3332 16.0001C73.3328 17.6384 72.8979 19.2473 72.0728 20.6628C71.2506 19.2404 70.065 18.0624 68.6374 17.2494C69.0877 16.4628 69.3274 15.5732 69.3332 14.6668C69.3332 11.7213 66.9454 9.33344 63.9999 9.33344C61.0544 9.33344 58.6666 11.7213 58.6666 14.6668C58.6725 15.573 58.9122 16.4623 59.3624 17.2488C57.9348 18.0617 56.7491 19.2398 55.927 20.6621C53.9645 17.2655 54.3365 13.004 56.8579 9.99892C59.3793 6.99379 63.5114 5.88709 67.1973 7.22969C70.8831 8.57228 73.3353 12.0773 73.3332 16.0001ZM40.1066 2.89344C45.7744 2.8945 51.3674 4.18881 56.4595 6.67784C54.028 8.64322 52.4604 11.4807 52.0911 14.5853C50.9653 14.0955 49.7287 13.9168 48.5103 14.0678C47.6153 14.2329 46.7466 14.5178 45.9276 14.9148C45.405 15.1619 44.862 15.3631 44.3046 15.5164C43.7701 15.6388 43.2089 15.5502 42.7382 15.269C42.5422 15.1284 42.5318 15.0177 42.5279 14.9757C42.4972 14.629 42.9322 14.201 43.5982 13.587C44.416 12.941 45.0602 12.1015 45.4726 11.1444C46.0202 9.25854 45.2107 7.24239 43.511 6.2589C41.8964 5.36947 40.0204 5.07632 38.2115 5.43077C37.5769 5.50416 36.938 5.53441 36.2994 5.52131C34.7054 5.4345 33.1845 4.82489 31.9719 3.78677C34.6423 3.1904 37.3704 2.89081 40.1066 2.89344ZM29.0436 4.58064C30.8036 6.73789 33.3956 8.04795 36.1763 8.18571C36.9377 8.20589 37.6996 8.1726 38.4563 8.0861C39.6818 7.80734 40.9659 7.95953 42.0923 8.51704C42.7215 8.85463 43.0686 9.5531 42.9576 10.2585C42.6679 10.7901 42.2708 11.2557 41.7916 11.6257C40.5995 12.4335 39.8815 13.7763 39.8716 15.2162C39.9612 16.1128 40.4407 16.9246 41.1828 17.4357C42.2825 18.1641 43.6334 18.4082 44.9186 18.1108C45.6305 17.9243 46.3239 17.6733 46.9902 17.3608C47.5954 17.0628 48.2361 16.843 48.8968 16.7065C50.0363 16.6252 51.1699 16.9306 52.1144 17.5732C52.3843 19.6159 53.179 21.5539 54.4211 23.198C54.3096 23.2646 54.2004 23.3346 54.089 23.4006C53.7315 23.6122 53.3839 23.8193 52.9738 24.1018C51.5014 25.2174 49.888 26.1332 48.1755 26.8257C47.5279 27.0425 46.8685 27.2219 46.2003 27.3629C44.8089 27.6049 43.4715 28.0915 42.2499 28.8001C39.8 30.3821 40.0995 32.9128 40.287 34.4342C40.244 34.42 40.1959 34.4024 40.1438 34.3796C39.9146 34.2862 39.6904 34.1796 39.4694 34.0749C38.0905 33.145 36.3047 33.0736 34.8561 33.8905C33.4074 34.7074 32.5444 36.2724 32.6266 37.9334C32.6266 41.0969 34.9748 42.9406 36.8616 44.423L37.5191 44.9445C37.9366 45.3266 38.312 45.7521 38.6391 46.214C35.9575 45.5396 33.2752 44.8762 30.5922 44.2238C28.3363 43.6789 26.0551 43.0064 25.1242 41.337C24.7671 40.5804 24.5261 39.7743 24.4092 38.9458C24.2407 37.6318 23.779 36.3725 23.0583 35.2609C21.6888 33.7334 19.8438 32.713 17.822 32.365L17.5798 32.2954C15.5831 31.701 14.4848 30.9856 14.1264 30.0473C13.9038 28.8306 14.1025 27.5743 14.6896 26.4856C15.4434 24.9179 15.6948 23.1559 15.4096 21.44C15.1107 20.1235 14.2308 19.0136 13.0171 18.4224C12.1296 18.026 11.1528 17.8722 10.1864 17.9766C14.8745 11.6062 21.4849 6.91019 29.0436 4.58064ZM2.89323 40.1068C2.89474 34.6792 4.07582 29.3168 6.35469 24.3908L6.45496 24.1752C6.81726 23.2178 7.35834 22.338 8.04936 21.5828C8.29372 21.3367 8.58352 21.1403 8.90269 21.0046C9.82184 20.5413 10.891 20.4761 11.8596 20.8244C12.3632 21.0778 12.7209 21.5502 12.8284 22.1036C12.9458 23.2966 12.723 24.4985 12.1859 25.5702C11.3359 27.2483 11.1396 29.1823 11.6351 30.9969C12.5296 33.3348 15.0218 34.3169 16.8316 34.8549L17.0902 34.9292C18.5315 35.1595 19.8668 35.8286 20.9143 36.8452C21.3878 37.6479 21.6878 38.541 21.7948 39.4668C21.9596 40.5695 22.2976 41.6393 22.7962 42.6366C24.2519 45.2454 27.261 46.1621 29.9647 46.8157C32.8684 47.5214 35.7723 48.2406 38.6763 48.9733C39.2611 49.1645 39.8927 49.1567 40.4726 48.9512C41.1482 48.6884 41.6319 48.0846 41.7408 47.3678C42.0462 45.3464 39.2544 42.9186 39.2122 42.8834L38.509 42.3261C36.8554 41.0274 35.2932 39.8001 35.2932 37.9201C35.2776 37.133 35.7308 36.4117 36.4468 36.0842C36.9495 35.874 37.361 36.0289 38.3303 36.486C38.5947 36.6109 38.8623 36.736 39.1071 36.8362C40.1418 37.393 41.4155 37.235 42.2828 36.4422C42.8491 35.8158 43.0907 34.9612 42.9362 34.131C42.7168 32.353 42.7988 31.6194 43.6979 31.0393C44.6653 30.5072 45.7156 30.1421 46.8046 29.9593C47.5745 29.7958 48.3341 29.5869 49.0794 29.3337C51.0441 28.5493 52.8951 27.5058 54.5832 26.2308C54.8499 26.0478 55.1451 25.8741 55.4478 25.695C55.7158 25.5362 56.0016 25.3646 56.2878 25.1796C58.763 27.2687 61.9797 28.2646 65.2024 27.9396C68.4251 27.6147 71.3782 25.9966 73.3866 23.4553C78.1337 32.9191 78.6217 43.9578 74.7282 53.8036C71.4225 50.78 66.7052 49.8554 62.5027 51.4075C58.3003 52.9595 55.3163 56.7284 54.7695 61.1748C54.2968 60.7036 53.8252 60.2304 53.3502 59.7449C51.5114 58.0036 49.393 56.5838 47.0835 55.5449C43.7111 53.929 40.7528 54.0813 38.9643 55.9654C38.1321 56.9508 37.4695 58.0676 37.0034 59.2701C36.7651 59.7981 36.532 60.3184 36.273 60.7728C35.7991 61.6586 35.1541 62.4415 34.3752 63.0761C34.0247 63.32 33.6509 63.5285 33.2592 63.6985C32.4469 64.0317 31.7094 64.5241 31.0904 65.1468C30.4126 65.9897 29.9668 66.9952 29.7971 68.0634C29.7044 68.5399 29.5596 69.0047 29.3654 69.4494C28.7306 70.5099 28.367 71.7104 28.3068 72.9449C28.3247 73.8964 28.5982 74.8256 29.0986 75.635C23.4215 73.8847 18.2475 70.7974 14.0112 66.6325C19.5788 66.3256 24.2002 62.2216 25.1629 56.7293C26.1257 51.2371 23.1757 45.8059 18.0445 43.6236C12.9133 41.4412 6.95493 43.0836 3.66656 47.5868C3.15718 45.1259 2.89809 42.6198 2.89323 40.1068ZM13.3332 56.0001C11.8605 56.0001 10.6666 54.8062 10.6666 53.3334C10.6666 51.8607 11.8605 50.6668 13.3332 50.6668C14.806 50.6668 15.9999 51.8607 15.9999 53.3334C15.9984 54.8056 14.8054 55.9986 13.3332 56.0001ZM10.6406 57.9106C12.2941 58.9188 14.3723 58.9188 16.0259 57.9106C17.6397 58.634 18.9052 59.9617 19.5503 61.6084C16.019 64.7974 10.6475 64.7974 7.11616 61.6084C7.76124 59.9617 9.02675 58.634 10.6406 57.9106ZM13.3332 45.3334C16.6691 45.3275 19.7535 47.1055 21.4202 49.9951C23.087 52.8847 23.0816 56.4449 21.4062 59.3294C20.584 57.9071 19.3983 56.7291 17.9707 55.9161C18.421 55.1294 18.6607 54.2399 18.6666 53.3334C18.6666 50.3879 16.2787 48.0001 13.3332 48.0001C10.3877 48.0001 7.99989 50.3879 7.99989 53.3334C8.00585 54.2396 8.24553 55.129 8.69576 55.9154C7.26815 56.7284 6.08247 57.9064 5.26029 59.3288C3.5852 56.4442 3.58001 52.8843 5.2467 49.9949C6.91338 47.1055 9.99761 45.3276 13.3332 45.3334ZM40.1066 77.3334C38.2258 77.3323 36.348 77.1865 34.4896 76.8974C33.9757 76.6116 33.4772 76.2988 32.9963 75.9604C31.9186 75.2886 31.1818 74.1861 30.9732 72.9334C31.0492 72.1311 31.3097 71.3573 31.7343 70.6724C32.032 70.0379 32.2521 69.3699 32.3899 68.6828C32.4767 68.0571 32.7076 67.46 33.0643 66.9386C33.4588 66.5805 33.9151 66.2971 34.411 66.1021C34.9683 65.8564 35.4981 65.5525 35.9916 65.1954C37.0542 64.3476 37.9358 63.2952 38.5842 62.1004C38.8979 61.5496 39.17 60.9493 39.4324 60.3686C39.7886 59.4421 40.2836 58.5752 40.9006 57.7976C42.23 56.3946 44.8606 57.4356 45.9259 57.9466C47.9542 58.8576 49.8191 60.0957 51.4459 61.6114C52.5838 62.7742 53.7126 63.9029 54.8952 64.9848C55.4489 67.774 56.9747 70.2762 59.201 72.0454C53.4345 75.5094 46.8335 77.3375 40.1066 77.3334ZM60.4494 69.6084C61.0944 67.9617 62.3599 66.634 63.9738 65.9106C65.6273 66.9188 67.7055 66.9188 69.3591 65.9106C70.9729 66.634 72.2384 67.9617 72.8835 69.6084C69.3522 72.7974 63.9807 72.7974 60.4494 69.6084ZM66.6666 64.0001C65.1938 64.0001 63.9999 62.8062 63.9999 61.3334C63.9999 59.8607 65.1938 58.6668 66.6666 58.6668C68.1393 58.6668 69.3332 59.8607 69.3332 61.3334C69.3317 62.8056 68.1387 63.9986 66.6666 64.0001ZM74.7395 67.3294C73.9173 65.9071 72.7316 64.7291 71.304 63.9161C71.7544 63.1294 71.994 62.2399 71.9999 61.3334C71.9999 58.3879 69.6121 56.0001 66.6666 56.0001C63.721 56.0001 61.3332 58.3879 61.3332 61.3334C61.3392 62.2396 61.5789 63.129 62.0291 63.9154C60.6015 64.7284 59.4158 65.9064 58.5936 67.3288C56.318 63.4067 57.1906 58.4165 60.6621 55.4994C64.1336 52.5823 69.1995 52.5823 72.671 55.4994C76.1425 58.4165 77.0151 63.4067 74.7395 67.3288V67.3294Z" fill="#004369"/>
</g>
<defs>
<clipPath id="clip0">
<rect width="80" height="80" fill="white"/>
</clipPath>
</defs>
</svg>
