<svg width="80" height="80" viewBox="0 0 80 80" fill="none" xmlns="http://www.w3.org/2000/svg">
<g clip-path="url(#clip0)">
<path d="M58.0639 30.9693C58.0639 14.1488 41.5055 0.839453 40.8011 0.280618C40.3317 -0.091098 39.6683 -0.091098 39.1983 0.280618C38.4939 0.839453 21.9355 14.1488 21.9355 30.9693C21.9355 46.4024 35.8711 58.8707 38.7094 61.2547V74.8394C38.7094 75.5519 39.2871 76.1297 39.9997 76.1297C40.7123 76.1297 41.29 75.5519 41.29 74.8394V61.2547C44.1289 58.8707 58.0639 46.4024 58.0639 30.9693ZM41.29 57.7814V43.1792L48.5674 37.1228C49.1156 36.6666 49.1899 35.8526 48.7338 35.3045C48.2776 34.7564 47.4636 34.682 46.9161 35.1382L41.29 39.8218V35.4349L48.5674 29.3778C49.1156 28.9223 49.1899 28.1083 48.7338 27.5602C48.2776 27.0121 47.4636 26.9377 46.9161 27.3939L41.29 32.08V26.4028L48.5674 20.3457C49.1156 19.8902 49.1899 19.0762 48.7338 18.5281C48.2776 17.98 47.4636 17.9056 46.9161 18.3618L41.29 23.0479V12.9051C41.29 12.1926 40.7123 11.6148 39.9997 11.6148C39.2871 11.6148 38.7094 12.1926 38.7094 12.9051V23.0479L33.0839 18.3643C32.5358 17.9082 31.7218 17.9825 31.2656 18.5306C30.8095 19.0788 30.8845 19.8928 31.4326 20.3489L38.7094 26.4053V32.0825L33.0839 27.3989C32.5358 26.9428 31.7218 27.0171 31.2656 27.5652C30.8095 28.1134 30.8845 28.9274 31.4326 29.3835L38.7094 35.4374V39.8243L33.0839 35.1407C32.5358 34.6845 31.7218 34.7589 31.2656 35.307C30.8095 35.8551 30.8845 36.6691 31.4326 37.1253L38.7094 43.1792V57.7814C34.3225 53.6654 24.5161 43.1162 24.5161 30.9693C24.5161 17.4287 36.721 5.84817 39.9997 2.98281C43.2784 5.84817 55.4833 17.4287 55.4833 30.9693C55.4833 43.1162 45.6769 53.6654 41.29 57.7814Z" fill="#009EE3"/>
<path d="M30.9677 68.3878H29.6774V58.9129C29.6818 57.2011 29.0014 55.5586 27.7873 54.3521L16.9256 43.4847C15.4155 41.9809 12.9728 41.9809 11.4627 43.4847L10.3229 44.6282V30.9692C10.3217 29.5353 9.72441 28.1669 8.67416 27.1909C7.62453 26.2144 6.21642 25.7186 4.78626 25.8206C2.03618 26.0884 -0.0473174 28.4239 0.000564712 31.1872V49.6187C-6.53157e-05 51.224 0.597831 52.7713 1.67833 53.9583L12.9035 66.3062V68.3878H11.6132C10.9007 68.3878 10.3229 68.9656 10.3229 69.6781V78.7102C10.3229 79.4228 10.9007 80.0005 11.6132 80.0005H30.9677C31.6803 80.0005 32.258 79.4228 32.258 78.7102V69.6781C32.258 68.9656 31.6803 68.3878 30.9677 68.3878ZM3.58794 52.2213C2.93964 51.51 2.58053 50.5814 2.58116 49.6187V31.1872C2.54651 29.7823 3.57723 28.577 4.97085 28.3949C5.71933 28.3414 6.45457 28.6154 6.98505 29.1459C7.47143 29.6279 7.74424 30.2844 7.74235 30.9692V46.6733C7.7392 47.7009 8.14745 48.6869 8.8764 49.4114L15.8621 56.3972C16.3687 56.8861 17.1732 56.8791 17.671 56.3814C18.1687 55.8837 18.1756 55.0785 17.6867 54.5726L11.7644 48.6497C11.5231 48.4097 11.3877 48.0833 11.3877 47.7431C11.3877 47.4022 11.5231 47.0759 11.7644 46.8358L13.2872 45.3143C13.7894 44.8179 14.5983 44.8179 15.1011 45.3143L25.9628 56.1773C26.6867 56.9043 27.0943 57.8872 27.0968 58.9129V68.3878H15.4841V65.3076L3.58794 52.2213ZM29.6774 77.4199H12.9035V70.9684H29.6774V77.4199Z" fill="#009EE3"/>
<path d="M75.2134 25.8206C73.7839 25.7186 72.3752 26.2144 71.3255 27.1909C70.2759 28.1669 69.6786 29.5353 69.6767 30.9692V44.6282L68.5377 43.4885C67.0275 41.9846 64.5849 41.9846 63.0747 43.4885L52.213 54.3521C50.9989 55.5586 50.3185 57.2011 50.3223 58.9129V68.3878H49.032C48.3194 68.3878 47.7417 68.9656 47.7417 69.6781V78.7102C47.7417 79.4228 48.3194 80.0005 49.032 80.0005H68.3864C69.099 80.0005 69.6767 79.4228 69.6767 78.7102V69.6781C69.6767 68.9656 69.099 68.3878 68.3864 68.3878H67.0962V66.3062L78.322 53.9583C79.4025 52.7713 80.0004 51.224 79.9991 49.6187V31.1872C80.047 28.4239 77.9641 26.0884 75.2134 25.8206ZM67.0962 77.4199H50.3223V70.9684H67.0962V77.4199ZM77.4185 49.6187C77.4198 50.5814 77.0607 51.51 76.4124 52.2213L64.5156 65.3076V68.3878H52.9029V58.9129C52.9054 57.8872 53.313 56.9031 54.0369 56.176L64.903 45.3143C65.4052 44.8179 66.2141 44.8179 66.7169 45.3143L68.2397 46.8371C68.7367 47.3367 68.7367 48.1438 68.2397 48.6434L62.3142 54.5688C61.9791 54.8926 61.8442 55.3721 61.9627 55.8232C62.0805 56.2743 62.4333 56.6271 62.8844 56.7449C63.3355 56.8627 63.815 56.7285 64.1388 56.3927L71.1245 49.4076C71.8516 48.6831 72.2592 47.699 72.2573 46.6733V30.9692C72.2561 30.2844 72.5289 29.6279 73.0146 29.1459C73.5457 28.6154 74.2804 28.342 75.0288 28.3949C76.4225 28.577 77.4538 29.7823 77.4185 31.1872V49.6187Z" fill="#009EE3"/>
<path d="M39.0837 77.7941C38.8475 78.0411 38.7139 78.368 38.7095 78.7102C38.712 78.7965 38.7202 78.8828 38.7353 78.9678C38.7498 79.0491 38.7756 79.1272 38.8128 79.2003C38.8412 79.2822 38.8802 79.3604 38.9287 79.4328C38.9766 79.5002 39.0283 79.5645 39.0837 79.6262C39.5928 80.1252 40.4074 80.1252 40.9159 79.6262L41.0709 79.4328C41.1194 79.3604 41.1584 79.2822 41.1868 79.2003C41.2246 79.1272 41.2504 79.0491 41.263 78.9678C41.2794 78.8828 41.2882 78.7965 41.2901 78.7102C41.2933 78.186 40.9789 77.7115 40.495 77.5106C40.0105 77.3096 39.4529 77.4217 39.0837 77.7941Z" fill="#009EE3"/>
<path d="M15.4842 74.8393H20.6455C21.358 74.8393 21.9358 74.2616 21.9358 73.549C21.9358 72.8364 21.358 72.2587 20.6455 72.2587H15.4842C14.7716 72.2587 14.1938 72.8364 14.1938 73.549C14.1938 74.2616 14.7716 74.8393 15.4842 74.8393Z" fill="#009EE3"/>
<path d="M24.0261 74.7361C24.181 74.8022 24.348 74.8369 24.5162 74.8394C25.0404 74.8419 25.5148 74.5275 25.7158 74.0436C25.9168 73.5598 25.8047 73.0016 25.4323 72.633C25.0612 72.2663 24.5068 72.1598 24.0261 72.3614C23.8679 72.4238 23.7236 72.5158 23.6002 72.633C23.3639 72.88 23.2303 73.2069 23.2259 73.5491C23.2139 74.0739 23.5346 74.5502 24.0261 74.7361Z" fill="#009EE3"/>
<path d="M52.8758 33.2915C52.8632 33.2108 52.8374 33.1321 52.7996 33.059C52.7713 32.9771 52.7322 32.8989 52.6837 32.8271L52.5287 32.6337C52.0114 32.1561 51.2138 32.1561 50.6965 32.6337C50.6411 32.6948 50.5894 32.7591 50.5415 32.8271C50.493 32.8989 50.4539 32.9771 50.4256 33.059C50.3884 33.1321 50.3626 33.2108 50.3481 33.2915C50.3336 33.3771 50.3254 33.4628 50.3223 33.5498C50.3267 33.8913 50.4602 34.2189 50.6965 34.4658C50.9422 34.704 51.2705 34.8376 51.6126 34.8401C51.956 34.8432 52.2861 34.7084 52.5293 34.4658C52.7719 34.2233 52.9067 33.8925 52.9029 33.5498C52.9004 33.4628 52.8916 33.3765 52.8758 33.2915Z" fill="#009EE3"/>
</g>
<defs>
<clipPath id="clip0">
<rect width="80" height="80" fill="white"/>
</clipPath>
</defs>
</svg>
