<svg width="80" height="80" viewBox="0 0 80 80" fill="none" xmlns="http://www.w3.org/2000/svg">
<g clip-path="url(#clip0)">
<path d="M64.2563 32.3079V12.7436C66.1683 12.5311 67.6603 10.9061 67.6603 8.93819C67.6603 6.82649 65.9425 5.10864 63.8308 5.10864H46.8106C44.6989 5.10864 42.981 6.82649 42.981 8.93819C42.981 10.9059 44.473 12.5311 46.3851 12.7436V32.3083C42.5257 33.8081 39.0916 36.268 36.4102 39.4624C35.9568 40.0024 36.0273 40.8075 36.5671 41.2607C36.8065 41.4616 37.0977 41.5596 37.3872 41.5596C37.7514 41.5596 38.1131 41.4045 38.3655 41.1038C40.9476 38.0277 44.3066 35.7115 48.0793 34.4053C48.5934 34.2273 48.9381 33.7431 48.9381 33.1991V12.7677H56.1717C56.8767 12.7677 57.4482 12.1962 57.4482 11.4912C57.4482 10.7862 56.8767 10.2147 56.1717 10.2147H46.8106C46.1066 10.2147 45.5341 9.64214 45.5341 8.93819C45.5341 8.23423 46.1066 7.66167 46.8106 7.66167H63.8308C64.5347 7.66167 65.1073 8.23423 65.1073 8.93819C65.1073 9.64214 64.5347 10.2147 63.8308 10.2147H61.2777C60.5728 10.2147 60.0012 10.7862 60.0012 11.4912C60.0012 12.1962 60.5728 12.7677 61.2777 12.7677H61.7032V33.1989C61.7032 33.7429 62.0481 34.2273 62.5621 34.4052C71.4652 37.4875 77.4469 45.8917 77.4469 55.318C77.4469 67.5185 67.5211 77.4443 55.3207 77.4443C52.4444 77.4443 49.6446 76.8993 46.9992 75.8246C46.3463 75.5591 45.6015 75.8737 45.3361 76.5267C45.0708 77.1798 45.3853 77.9244 46.0384 78.1898C48.9905 79.389 52.1134 79.9971 55.3207 79.9971C68.9288 79.9971 79.9999 68.926 79.9999 55.3179C79.9999 45.1107 73.7106 35.9777 64.2563 32.3079Z" fill="#009EE3"/>
<path d="M64.8339 61.0838C65.5389 61.0838 66.1104 60.5123 66.1104 59.8073C66.1104 59.1023 65.5389 58.5308 64.8339 58.5308C64.1289 58.5308 63.5574 59.1023 63.5574 59.8073C63.5574 60.5123 64.1289 61.0838 64.8339 61.0838Z" fill="#009EE3"/>
<path d="M59.7277 66.1899C60.4327 66.1899 61.0042 65.6184 61.0042 64.9134C61.0042 64.2084 60.4327 63.6368 59.7277 63.6368C59.0227 63.6368 58.4512 64.2084 58.4512 64.9134C58.4512 65.6184 59.0227 66.1899 59.7277 66.1899Z" fill="#009EE3"/>
<path d="M48.111 70.7394C47.4729 70.4407 46.7128 70.7156 46.4136 71.354C46.1146 71.9924 46.3898 72.7524 47.0282 73.0514C49.635 74.2725 52.425 74.8916 55.3208 74.8916C66.1135 74.8916 74.894 66.1111 74.894 55.3184C74.894 51.8781 73.988 48.4937 72.2739 45.5308C72.0138 45.0813 71.5078 44.8337 70.9931 44.9058L70.5285 44.9705C70.4703 44.9785 70.4124 44.9907 70.3559 45.0067C68.4262 45.5545 67.3854 46.3903 66.5492 47.0619C65.6228 47.8061 65.0105 48.2976 63.2445 48.2976C61.7364 48.2976 61.0559 47.713 60.114 46.9038C59.0715 46.0082 57.7741 44.8936 55.3199 44.8936C52.866 44.8936 51.5687 46.0082 50.5262 46.904C49.5845 47.7131 48.9042 48.2976 47.3964 48.2976C45.6305 48.2976 45.0186 47.8061 44.0922 47.0619C43.256 46.3903 42.2154 45.5545 40.286 45.0067C40.2293 44.9906 40.1716 44.9785 40.1132 44.9705L39.6486 44.9058C39.1349 44.8338 38.6301 45.0801 38.3695 45.5279C38.3585 45.5468 38.3477 45.566 38.336 45.5878C37.9847 46.199 38.1954 46.9794 38.8066 47.3307C39.0721 47.4832 39.3693 47.5298 39.6496 47.4835L39.6709 47.4866C41.0478 47.8913 41.7506 48.4557 42.4935 49.0526C43.594 49.9366 44.7322 50.8508 47.3964 50.8508C49.8503 50.8508 51.1476 49.7361 52.1901 48.8404C53.1318 48.0312 53.8121 47.4468 55.3199 47.4468C56.8281 47.4468 57.5086 48.0314 58.4505 48.8405C59.4929 49.7361 60.7904 50.8508 63.2445 50.8508C65.9089 50.8508 67.047 49.9366 68.1479 49.0528C68.8037 48.526 69.4278 48.0248 70.512 47.6359C71.7111 50.0052 72.3411 52.6422 72.3411 55.3186C72.3411 64.7035 64.7059 72.3388 55.321 72.3388C52.8021 72.3384 50.3764 71.8004 48.111 70.7394Z" fill="#009EE3"/>
<path d="M30.8117 32.9852V7.63821C32.7237 7.4258 34.2157 5.80071 34.2157 3.83284C34.2157 1.72114 32.4979 0.0032959 30.3862 0.0032959H13.366C11.2543 0.0032959 9.53645 1.72114 9.53645 3.83284C9.53645 5.80054 11.0284 7.4258 12.9405 7.63821V28.0938C12.9405 28.7987 13.512 29.3703 14.217 29.3703C14.922 29.3703 15.4935 28.7987 15.4935 28.0938V7.66238H22.7271C23.4321 7.66238 24.0036 7.09084 24.0036 6.38587C24.0036 5.68089 23.4321 5.10935 22.7271 5.10935H13.366C12.662 5.10935 12.0895 4.53679 12.0895 3.83284C12.0895 3.12888 12.662 2.55632 13.366 2.55632H30.3862C31.0901 2.55632 31.6627 3.12888 31.6627 3.83284C31.6627 4.53679 31.0901 5.10935 30.3862 5.10935H27.8332C27.1282 5.10935 26.5566 5.68089 26.5566 6.38587C26.5566 7.09084 27.1282 7.66238 27.8332 7.66238H28.2587V33.1998C28.2587 33.3418 28.2823 33.4829 28.3288 33.617L40.7346 69.4877C41.4839 71.654 41.3148 73.6636 40.2589 75.1462C39.2028 76.6287 37.359 77.4453 35.0669 77.4453H8.68561C6.3935 77.4453 4.54954 76.6289 3.49343 75.1462C2.4375 73.6636 2.26849 71.654 3.01772 69.4879L15.4236 33.6173C15.654 32.951 15.3007 32.224 14.6345 31.9936C13.9683 31.7633 13.2412 32.1165 13.0108 32.7827L0.604768 68.6532C-0.42189 71.6214 -0.134419 74.4534 1.41391 76.6272C2.96223 78.801 5.54471 79.9982 8.68544 79.9982H35.0667C38.2075 79.9982 40.7899 78.801 42.3383 76.6272C43.8866 74.4534 44.1741 71.6214 43.1474 68.6532L30.8117 32.9852Z" fill="#009EE3"/>
<path d="M11.0039 59.3652C10.6788 59.1131 10.2518 59.0328 9.85778 59.1502C9.46342 59.2675 9.14957 59.5678 9.01511 59.9567L5.43032 70.3218C4.95852 71.6861 5.00907 72.8733 5.57278 73.6646C6.13649 74.4558 7.24178 74.8917 8.68543 74.8917H35.0667C36.5102 74.8917 37.6157 74.4558 38.1792 73.6646C38.7431 72.8733 38.7936 71.686 38.3217 70.3218L34.7367 59.9563C34.6022 59.5674 34.2886 59.2674 33.8942 59.1501C33.4998 59.0326 33.073 59.1128 32.7481 59.365C32.0518 59.9051 31.3926 60.3183 29.7997 60.3183C28.2917 60.3183 27.611 59.7337 26.6691 58.9246C25.6266 58.029 24.3292 56.9143 21.8751 56.9143C19.4211 56.9143 18.1238 58.029 17.0813 58.9247C16.1396 59.7339 15.4593 60.3183 13.9513 60.3183C12.3589 60.318 11.6999 59.9051 11.0039 59.3652ZM18.7452 60.8608C19.6869 60.0516 20.3672 59.4672 21.8751 59.4672C23.3832 59.4672 24.0637 60.0518 25.0056 60.8609C26.0481 61.7565 27.3455 62.8712 29.7997 62.8712C31.134 62.8712 32.0947 62.6322 32.8446 62.2961L35.9089 71.1563C36.09 71.68 36.1 72.023 36.0821 72.1709C35.9482 72.2361 35.6209 72.3387 35.0667 72.3387H8.68543C8.13125 72.3387 7.80396 72.2361 7.67001 72.1709C7.65214 72.023 7.66218 71.68 7.84327 71.1563L10.9074 62.2964C11.657 62.6326 12.6174 62.8714 13.9515 62.8714C16.4056 62.871 17.7029 61.7564 18.7452 60.8608Z" fill="#009EE3"/>
</g>
<defs>
<clipPath id="clip0">
<rect width="80" height="80" fill="white"/>
</clipPath>
</defs>
</svg>
