<svg width="80" height="80" viewBox="0 0 80 80" fill="none" xmlns="http://www.w3.org/2000/svg">
<g clip-path="url(#clip0)">
<path d="M55.3194 0C41.7103 0 30.6385 11.0718 30.6385 24.6809C30.6385 31.0271 33.0468 36.8209 36.9966 41.1981L35.309 42.8858L33.9161 41.479C33.8857 41.4407 33.8535 41.4032 33.8181 41.3678C33.7851 41.3348 33.7503 41.3042 33.7148 41.2754L32.6189 40.1687C32.1228 39.6676 31.3144 39.6638 30.8137 40.1597C30.3125 40.6558 30.3085 41.464 30.8045 41.9651L31.1083 42.272L0.374159 73.0065C-0.124394 73.505 -0.124394 74.3134 0.374159 74.8117L5.18846 79.626C5.43782 79.8752 5.76463 80 6.09127 80C6.4179 80 6.74471 79.8754 6.99407 79.626L37.6952 48.9249L37.99 49.2228C38.2397 49.4749 38.5684 49.6012 38.8972 49.6012C39.2218 49.6012 39.5464 49.4781 39.7953 49.2318C40.2964 48.7357 40.3005 47.9275 39.8045 47.4264L37.1056 44.7003L38.8022 43.0036C43.1794 46.9534 48.9733 49.3617 55.3194 49.3617C68.9284 49.3617 80.0002 38.2899 80.0002 24.6809C80.0002 11.0718 68.9284 0 55.3194 0ZM6.0911 76.9181L3.08207 73.9091L32.9047 44.0865L35.8986 47.1105L6.0911 76.9181ZM55.3194 46.8085C43.118 46.8085 33.1917 36.882 33.1917 24.6809C33.1917 12.4797 43.1182 2.55319 55.3194 2.55319C67.5205 2.55319 77.447 12.4797 77.447 24.6809C77.447 36.882 67.5207 46.8085 55.3194 46.8085Z" fill="#009EE3"/>
<path d="M55.3191 5.10645C44.5257 5.10645 35.7446 13.8876 35.7446 24.6809C35.7446 35.4743 44.5257 44.2554 55.3191 44.2554C59.6069 44.2554 63.6789 42.8937 67.0946 40.3177C67.6577 39.8932 67.7698 39.0927 67.3453 38.5298C66.9208 37.967 66.1203 37.8545 65.5574 38.2792C62.588 40.5185 59.0478 41.7022 55.3191 41.7022C45.9334 41.7022 38.2978 34.0664 38.2978 24.6809C38.2978 15.2954 45.9336 7.65964 55.3191 7.65964C64.7046 7.65964 72.3404 15.2954 72.3404 24.6809C72.3404 28.4098 71.1567 31.95 68.9174 34.919C68.4929 35.4819 68.6051 36.2824 69.1679 36.707C69.7308 37.1315 70.5315 37.0191 70.956 36.4564C73.5319 33.0409 74.8936 28.9691 74.8936 24.6809C74.8936 13.8876 66.1125 5.10645 55.3191 5.10645Z" fill="#009EE3"/>
<path d="M55.319 34.8936C54.6139 34.8936 54.0424 35.4652 54.0424 36.1702C54.0424 36.8753 54.6139 37.4468 55.319 37.4468C62.3582 37.4468 68.085 31.72 68.085 24.6809C68.085 17.6417 62.3582 11.9149 55.319 11.9149C52.9093 11.9149 50.5596 12.5929 48.5238 13.8754C47.9272 14.2513 47.7483 15.0395 48.1242 15.6361C48.5002 16.2327 49.2886 16.4118 49.8848 16.0358C51.5126 15.0102 53.3916 14.4681 55.319 14.4681C60.9504 14.4681 65.5318 19.0496 65.5318 24.6809C65.5318 30.3122 60.9504 34.8936 55.319 34.8936Z" fill="#009EE3"/>
<path d="M44.5137 17.8858C43.2312 19.9214 42.5532 22.2712 42.5532 24.6809C42.5532 25.3859 43.1246 25.9575 43.8298 25.9575C44.535 25.9575 45.1064 25.3859 45.1064 24.6809C45.1064 22.7534 45.6485 20.8744 46.6739 19.2469C47.0497 18.6503 46.8708 17.862 46.2742 17.4862C45.6778 17.1105 44.8896 17.2891 44.5137 17.8858Z" fill="#009EE3"/>
</g>
<defs>
<clipPath id="clip0">
<rect width="80" height="80" fill="white"/>
</clipPath>
</defs>
</svg>
