<svg width="80" height="80" viewBox="0 0 80 80" fill="none" xmlns="http://www.w3.org/2000/svg">
<path d="M26.8561 66.3115C27.5207 66.3115 28.0652 65.7365 28.0273 65.0731C27.8436 61.8193 27.6086 59.4603 27.3285 58.062C26.3226 53.0321 20.1868 43.6681 19.9261 43.272C19.7675 43.0309 19.5258 42.857 19.2462 42.7831C8.69022 39.992 3.6524 36.0443 4.27434 31.0479C4.86211 26.3257 15.6012 21.1066 19.6899 19.494C20.1373 19.3176 20.4321 18.8849 20.4321 18.4039V3.19342C20.4321 2.55133 21.1414 2.14301 21.6992 2.461C23.5187 3.49798 26.0193 5.32598 27.6031 8.14641C29.425 11.391 29.6545 15.2613 28.2855 19.6503C28.1421 20.1111 28.2953 20.6122 28.6712 20.9143C28.717 20.9509 33.2611 24.6637 34.1143 31.4825C34.176 31.9787 34.5465 32.3809 35.036 32.4841C35.1489 32.5073 46.4239 34.9255 56.1864 40.7061C56.7437 41.0357 57.4627 40.852 57.7922 40.2947C58.1218 39.7375 57.9381 39.0185 57.3809 38.6889C48.6901 33.5424 39.1296 31.0357 36.3208 30.3711C35.3503 24.5801 32.099 20.9308 30.7379 19.6228C32.0593 14.8865 31.6937 10.6427 29.6472 6.99834C27.8003 3.70978 24.9371 1.60834 22.8601 0.424264C21.8597 -0.145802 20.6683 -0.140919 19.6735 0.437082C19.3396 0.630562 19.0527 0.876533 18.8165 1.16035C18.4485 0.943061 18.0695 0.73066 17.6819 0.524972C16.5283 -0.0884293 15.1715 -0.0536394 14.0515 0.618966C12.9346 1.29035 12.2675 2.47016 12.2675 3.77386V9.32377C12.2675 9.97135 12.7918 10.4963 13.4394 10.4963C14.0869 10.4963 14.6118 9.97135 14.6118 9.32377V3.77447C14.6118 2.77716 15.6983 2.12531 16.5814 2.59467C17.1039 2.87238 17.6074 3.16229 18.0878 3.45892V17.619C17.3413 17.9352 16.0938 18.4839 14.6118 19.2181V14.0125C14.6118 13.3655 14.0869 12.8406 13.4394 12.8406C12.7918 12.8406 12.2675 13.3655 12.2675 14.0125V20.4413C11.8146 20.6903 11.3544 20.9509 10.8924 21.2231C5.33757 24.494 2.32855 27.702 1.9483 30.758C1.16827 37.0245 6.63762 41.7913 18.208 44.9316C19.3518 46.7138 24.2181 54.4616 25.0299 58.5216C25.2881 59.8125 25.509 62.0616 25.6866 65.2049C25.722 65.8293 26.239 66.3115 26.8561 66.3115Z" fill="#009EE3"/>
<path d="M14.8311 29.5055C14.8311 31.1626 15.876 32.4608 17.2102 32.4608C18.5438 32.4608 19.5894 31.1626 19.5894 29.5055C19.5894 27.849 18.5438 26.5508 17.2102 26.5508C15.876 26.5508 14.8311 27.849 14.8311 29.5055Z" fill="#009EE3"/>
<path d="M73.018 61.6612C73.0895 58.9635 72.5548 56.179 71.4134 53.3257C69.6617 48.9458 66.2877 44.9059 61.386 41.3201C60.8635 40.9374 60.1299 41.0515 59.7478 41.5734C59.3651 42.0958 59.4793 42.8295 60.0017 43.2116C64.5433 46.5349 67.6506 50.2306 69.2369 54.1966C71.2535 59.2375 71.1443 64.0111 68.9116 68.3842C67.4822 71.1833 65.2855 73.5289 62.5585 75.167C59.8479 76.7948 56.7339 77.6554 53.5534 77.6554H39.3304C37.7587 77.6554 36.4788 76.392 36.4483 74.8271C36.4483 74.8149 36.4489 74.8027 36.4489 74.7898V74.6952C36.4898 73.1394 37.7649 71.8852 39.3304 71.8852H50.0115C51.0271 71.8852 51.5563 70.6199 50.8489 69.893C50.6811 69.7203 46.7706 65.6071 48.922 59.6385C50.8636 54.2534 55.0378 54.0617 55.2245 54.0556C55.8678 54.0422 56.3811 53.5118 56.372 52.8673C56.3622 52.2258 55.8398 51.7119 55.2001 51.7119C55.1946 51.7119 55.1885 51.7119 55.183 51.7119C54.9413 51.7156 49.2284 51.8767 46.7169 58.8438C45.2349 62.9545 46.0986 66.3536 47.1929 68.5972C40.354 65.9868 36.2042 61.353 36.1578 61.3011C35.459 60.5052 34.1052 61.0185 34.1052 62.0744V74.6202C34.1034 74.6702 34.1015 74.7203 34.1015 74.7703C34.1015 74.7917 34.1028 74.8124 34.1028 74.8338C34.0789 76.3938 32.8045 77.6554 31.239 77.6554C29.6905 77.6554 28.4051 76.3969 28.374 74.849C28.3386 73.1053 28.2941 71.4299 28.2397 69.8698C28.2178 69.2228 27.6745 68.7175 27.0282 68.7388C26.3812 68.7614 25.8746 69.3034 25.8972 69.951C25.9503 71.5 25.9949 73.1639 26.0303 74.896C26.0864 77.7104 28.4234 79.9998 31.239 79.9998C32.868 79.9998 34.3243 79.2484 35.2801 78.0741C36.2396 79.2484 37.6989 79.9998 39.3304 79.9998H53.5534C57.1587 79.9998 60.6902 79.0238 63.7651 77.1769C64.9761 76.4494 66.0936 75.5979 67.105 74.6415C68.2665 75.3953 69.6239 75.803 71.0259 75.803C75.0023 75.803 78.2378 72.5675 78.2378 68.5905C78.2378 65.3398 76.0588 62.5334 73.018 61.6612ZM43.5009 69.5414H39.3304C38.2666 69.5414 37.276 69.8619 36.4489 70.41V64.8344C38.0011 66.1839 40.3936 67.996 43.5009 69.5414ZM71.0259 73.4587C70.2226 73.4587 69.4408 73.2609 68.7432 72.8904C69.7875 71.6239 70.6645 70.2177 71.3487 68.726C72.0494 67.205 72.5304 65.6468 72.7916 64.0544C74.6208 64.7667 75.8934 66.5495 75.8934 68.5905C75.8934 71.2748 73.7102 73.4587 71.0259 73.4587Z" fill="#009EE3"/>
</svg>
