<svg width="80" height="80" viewBox="0 0 80 80" fill="none" xmlns="http://www.w3.org/2000/svg">
<g clip-path="url(#clip0)">
<path d="M38.6498 30.5036C39.1711 30.9986 40.0378 30.8985 40.4339 30.301L48.2336 18.5297C48.5912 17.9902 48.4435 17.2626 47.904 16.905C47.365 16.5479 46.6375 16.6956 46.2798 17.2346L39.251 27.8425L35.3454 24.134C34.876 23.6884 34.1345 23.708 33.6883 24.1773C33.2427 24.6467 33.2623 25.3883 33.7316 25.8338C33.731 25.8338 38.6456 30.5 38.6498 30.5036Z" fill="#009EE3"/>
<path d="M39.4496 48.3777C39.6736 48.4802 39.9214 48.5346 40.168 48.5346H40.1777C40.4286 48.5333 40.6801 48.476 40.9047 48.3685C58.7245 39.8938 61.7445 21.6089 62.245 16.2067C62.3598 14.9731 61.6652 13.8245 60.5171 13.3484C56.9697 11.8756 54.5582 8.58215 54.2238 4.75342C54.1206 3.57483 53.1135 2.65625 51.927 2.65625H51.913L27.9054 2.79724C26.6951 2.80396 25.7118 3.72376 25.619 4.93652C25.3236 8.76648 22.9475 12.0837 19.4178 13.5938C18.2814 14.0796 17.6039 15.2344 17.7333 16.4673C18.2972 21.8634 21.5315 40.1123 39.4496 48.3777ZM20.3395 15.7483C24.6675 13.8977 27.5831 9.8346 27.9536 5.14038L51.8922 5C52.3176 9.68384 55.2748 13.7097 59.6187 15.5127C59.8128 15.5939 59.9306 15.7855 59.9116 15.9906C59.4417 21.0535 56.6298 38.1244 40.1637 46.1243C23.603 38.3191 20.5934 21.2811 20.0636 16.2238C20.0422 16.0193 20.1533 15.8282 20.3395 15.7483Z" fill="#009EE3"/>
<path d="M23.2654 22.2449C23.407 22.7661 24.068 23.2434 24.704 23.0682C25.3278 22.8961 25.697 22.2546 25.5274 21.6303C25.2289 20.5304 24.978 19.4153 24.7809 18.3106C27.9645 16.236 30.3272 13.1397 31.4862 9.52332L48.41 9.42383C49.6112 13.0255 52.0099 16.095 55.2179 18.1317C55.0342 19.2395 54.7962 20.3583 54.5099 21.4624C54.3475 22.0892 54.7241 22.7289 55.3504 22.8912C55.9778 23.0536 56.6168 22.677 56.7792 22.0502C57.1149 20.7538 57.3883 19.4379 57.591 18.139C57.7045 17.4133 57.3725 16.6998 56.7462 16.3214C53.7579 14.5166 51.5491 11.6852 50.5267 8.349C50.2966 7.59888 49.5892 7.07764 48.8043 7.07764H48.7934L31.0748 7.1814C30.2851 7.18628 29.5783 7.7179 29.3567 8.47351C28.374 11.8213 26.1981 14.6783 23.2312 16.5186C22.6093 16.9037 22.2864 17.6209 22.4079 18.346C22.6264 19.6417 22.9144 20.9534 23.2654 22.2449Z" fill="#009EE3"/>
<path d="M54.4104 25.7196C53.8122 25.4718 53.1274 25.7574 52.8802 26.3556C50.1721 32.9193 45.885 37.9095 40.1342 41.1938C34.339 37.973 29.9896 33.0249 27.2052 26.4819C26.9513 25.8868 26.2628 25.6097 25.6677 25.863C25.072 26.1163 24.7949 26.8048 25.0482 27.3999C28.0871 34.5398 32.8747 39.9224 39.2779 43.3972C39.5477 43.5443 39.8431 43.6169 40.1379 43.6169C40.44 43.6169 40.7415 43.5406 41.0162 43.3874C47.3712 39.8419 52.0916 34.4122 55.047 27.2491C55.2942 26.651 55.0091 25.9662 54.4104 25.7196Z" fill="#009EE3"/>
<path d="M7.51892 62.6208C5.23315 62.6208 3.3728 64.4806 3.3728 66.767C3.3728 69.0533 5.23315 70.9131 7.51892 70.9131C9.8053 70.9131 11.6656 69.0533 11.6656 66.767C11.6656 64.4806 9.80591 62.6208 7.51892 62.6208ZM7.51892 68.5693C6.52527 68.5693 5.71655 67.7612 5.71655 66.767C5.71655 65.7733 6.52527 64.9646 7.51892 64.9646C8.51318 64.9646 9.3219 65.7733 9.3219 66.767C9.3219 67.7612 8.51318 68.5693 7.51892 68.5693Z" fill="#009EE3"/>
<path d="M79.1595 51.1481C77.6575 48.941 74.6332 48.3563 72.4182 49.8444L57.0984 60.0977L53.8281 59.9139L53.7445 59.0765C53.4186 55.7971 50.9119 53.1842 47.6489 52.7228C47.6282 52.7197 47.608 52.7173 47.5873 52.7155L31.0797 51.2689C30.5212 51.1816 28.7335 50.6683 23.8214 47.851C21.2683 46.3867 18.3917 45.5603 15.4694 45.448V42.3822C15.4694 40.8435 14.2181 39.5923 12.6794 39.5923H2.78992C1.25183 39.5923 0 40.8441 0 42.3822V72.5769C0 74.115 1.25183 75.3668 2.78992 75.3668H12.6794C14.2175 75.3668 15.4694 74.115 15.4694 72.5769V71.745L29.8993 77.2095C29.931 77.2217 31.1029 77.6599 33.2574 77.4567C33.2635 77.4561 57.2339 74.0002 57.2339 74.0002C57.24 73.9996 57.2455 73.9984 57.2516 73.9972C59.2999 73.6707 61.2317 72.8046 62.8387 71.4941C62.8534 71.4819 62.8674 71.4697 62.8815 71.4575L78.3667 57.5299C80.1916 55.9094 80.5328 53.1659 79.1595 51.1481ZM76.8048 55.7825L61.3361 69.6954C60.0555 70.7336 58.5187 71.4203 56.8903 71.6815L32.9315 75.1355C32.926 75.1361 32.9181 75.1373 32.9108 75.1386C32.9071 75.1392 32.9028 75.1398 32.8992 75.1404C32.1826 75.2533 31.4362 75.2057 30.6799 74.9988L15.4694 69.2389V55.8557C15.4694 55.2081 14.9445 54.6838 14.2975 54.6838C13.6499 54.6838 13.1256 55.2081 13.1256 55.8557V72.5769C13.1256 72.8229 12.9254 73.0231 12.6794 73.0231H2.78992C2.54395 73.0231 2.34375 72.8229 2.34375 72.5769V42.3822C2.34375 42.1362 2.54395 41.936 2.78992 41.936H12.6794C12.9254 41.936 13.1256 42.1362 13.1256 42.3822V50.5621C13.1256 51.2097 13.6505 51.734 14.2975 51.734C14.9451 51.734 15.4694 51.2091 15.4694 50.5621V47.7942C17.9834 47.9053 20.4565 48.623 22.655 49.8846C28.5797 53.2825 30.2344 53.5168 30.7782 53.5938C30.7989 53.5968 30.8191 53.5986 30.8398 53.6011L47.3492 55.0476C49.5258 55.3693 51.1945 57.1173 51.4123 59.3085L51.4746 59.9329L29.3719 61.2976C29.3567 61.2964 29.3414 61.2952 29.328 61.2939C28.6114 61.2292 27.9645 60.8905 27.5049 60.34C27.0905 59.8425 26.3513 59.7754 25.8545 60.1904C25.3571 60.6049 25.2899 61.344 25.705 61.8408C26.5649 62.8723 27.7783 63.4894 29.1193 63.6285C29.8431 63.7042 52.7637 62.2015 52.7637 62.2015L57.3584 62.4597C57.6123 62.4744 57.8644 62.4048 58.0756 62.2632L73.7237 51.7908C74.873 51.0187 76.4423 51.3214 77.2217 52.4664C77.934 53.5138 77.757 54.9371 76.8048 55.7825Z" fill="#009EE3"/>
</g>
<defs>
<clipPath id="clip0">
<rect width="80" height="80" fill="white"/>
</clipPath>
</defs>
</svg>
